<?xml version="1.0" standalone="no"?>
<!DOCTYPE svg PUBLIC "-//W3C//DTD SVG 20010904//EN"
 "http://www.w3.org/TR/2001/REC-SVG-20010904/DTD/svg10.dtd">
<svg version="1.0" xmlns="http://www.w3.org/2000/svg"
 width="260.000000pt" height="260.000000pt" viewBox="0 0 260.000000 260.000000"
 preserveAspectRatio="xMidYMid meet">
<metadata>
Created by potrace 1.11, written by Peter Selinger 2001-2013
</metadata>
<g transform="translate(0.000000,260.000000) scale(0.100000,-0.100000)"
fill="#000000" stroke="none">
<path d="M1133 2458 c-95 -51 -173 -96 -173 -102 1 -12 330 -206 349 -206 15
0 351 200 351 209 0 5 -330 183 -348 188 -4 1 -85 -39 -179 -89z"/>
<path d="M310 2295 c-102 -46 -185 -89 -185 -95 0 -9 346 -238 761 -505 18
-12 37 -2 204 99 101 62 185 116 187 122 2 8 -736 448 -769 458 -7 2 -96 -34
-198 -79z"/>
<path d="M1708 2152 c-213 -125 -386 -231 -385 -236 2 -6 86 -60 187 -122 167
-101 186 -111 204 -99 415 267 761 496 761 505 0 7 -370 183 -380 180 0 0
-174 -103 -387 -228z"/>
<path d="M940 2241 l0 -70 168 -100 c92 -54 170 -97 175 -94 4 2 7 33 7 68 l0
63 -167 99 c-91 54 -170 100 -175 101 -4 2 -8 -28 -8 -67z"/>
<path d="M110 1986 l0 -165 372 -263 c204 -145 377 -267 385 -271 11 -7 13 23
11 178 l-3 187 -330 215 c-181 118 -354 230 -382 249 l-53 34 0 -164z"/>
<path d="M1320 1673 l0 -189 147 -95 c80 -52 159 -102 175 -112 l28 -19 0 195
0 195 -152 93 c-84 51 -163 99 -175 107 l-23 14 0 -189z"/>
<path d="M516 1061 c-4 -5 12 -235 34 -512 22 -276 40 -512 40 -526 l0 -23
201 2 201 3 85 199 c46 110 95 230 107 267 l23 68 12 -217 c6 -119 14 -241 17
-269 l6 -53 197 0 197 0 227 527 c125 290 223 531 219 535 -5 5 -98 7 -206 6
l-199 -3 -74 -190 c-41 -104 -87 -228 -103 -275 -24 -67 -30 -78 -30 -51 0 89
-32 507 -39 514 -4 4 -75 6 -157 5 l-149 -3 -105 -269 -105 -269 -8 149 c-4
82 -11 203 -15 269 l-7 120 -182 3 c-107 1 -184 -1 -187 -7z"/>
</g>
</svg>
